<svg xmlns="http://www.w3.org/2000/svg" xmlns:xlink="http://www.w3.org/1999/xlink" width="500" zoomAndPan="magnify" viewBox="0 0 375 374.999991" height="500" preserveAspectRatio="xMidYMid meet" version="1.0"><defs><g/><clipPath id="82fabace70"><path d="M 78.121094 187.617188 L 297.121094 187.617188 L 297.121094 244.617188 L 78.121094 244.617188 Z M 78.121094 187.617188 " clip-rule="nonzero"/></clipPath></defs><g clip-path="url(#82fabace70)"><path fill="#febd69" d="M 293.613281 226.734375 C 293.542969 227.058594 293.476562 227.371094 293.390625 227.683594 L 293.117188 228.597656 C 292.96875 229.203125 292.699219 229.769531 292.511719 230.332031 C 292.023438 231.433594 291.507812 232.460938 290.882812 233.414062 C 290.234375 234.351562 289.5625 235.25 288.773438 236.046875 C 287.199219 237.644531 285.355469 238.96875 283.164062 239.945312 L 282.753906 240.136719 L 282.332031 240.300781 C 282.042969 240.402344 281.757812 240.523438 281.460938 240.628906 C 280.867188 240.789062 280.253906 241.03125 279.609375 241.171875 C 278.96875 241.335938 278.304688 241.460938 277.613281 241.578125 C 277.605469 241.578125 277.597656 241.582031 277.589844 241.582031 C 276.769531 241.710938 276.550781 242.808594 277.28125 243.207031 C 277.96875 243.582031 278.710938 243.878906 279.476562 244.105469 C 280.234375 244.339844 281.023438 244.433594 281.828125 244.542969 C 282.230469 244.589844 282.632812 244.570312 283.039062 244.578125 L 283.652344 244.578125 C 283.859375 244.574219 284.058594 244.542969 284.261719 244.523438 C 287.542969 244.21875 290.734375 242.621094 293.070312 240.207031 C 294.253906 239.007812 295.179688 237.578125 295.894531 236.070312 C 296.585938 234.542969 296.976562 232.90625 297.113281 231.273438 C 297.128906 230.867188 297.117188 230.457031 297.117188 230.046875 C 297.113281 229.84375 297.121094 229.648438 297.101562 229.445312 C 297.085938 229.242188 297.054688 229.042969 297.027344 228.839844 C 296.964844 228.441406 296.929688 228.046875 296.84375 227.65625 C 296.753906 227.269531 296.65625 226.886719 296.53125 226.507812 C 296.328125 225.902344 296.082031 225.308594 295.789062 224.75 C 295.335938 223.890625 294.039062 224.105469 293.90625 225.066406 C 293.828125 225.644531 293.730469 226.195312 293.613281 226.734375 Z M 81.355469 225.066406 C 81.222656 224.105469 79.925781 223.890625 79.472656 224.75 C 79.179688 225.308594 78.933594 225.902344 78.730469 226.507812 C 78.605469 226.886719 78.507812 227.269531 78.417969 227.65625 C 78.332031 228.046875 78.296875 228.441406 78.234375 228.839844 C 78.210938 229.042969 78.175781 229.242188 78.160156 229.445312 C 78.144531 229.648438 78.148438 229.84375 78.144531 230.046875 C 78.144531 230.457031 78.132812 230.867188 78.148438 231.273438 C 78.289062 232.90625 78.679688 234.542969 79.371094 236.070312 C 80.082031 237.578125 81.011719 239.007812 82.191406 240.207031 C 84.527344 242.621094 87.722656 244.21875 91 244.523438 C 91.203125 244.542969 91.402344 244.574219 91.609375 244.578125 L 92.222656 244.578125 C 92.628906 244.570312 93.03125 244.589844 93.433594 244.542969 C 94.238281 244.433594 95.027344 244.339844 95.789062 244.105469 C 96.550781 243.878906 97.292969 243.582031 97.980469 243.207031 C 98.710938 242.808594 98.492188 241.710938 97.671875 241.582031 C 97.664062 241.582031 97.65625 241.578125 97.652344 241.578125 C 96.957031 241.460938 96.292969 241.335938 95.652344 241.171875 C 95.011719 241.03125 94.398438 240.789062 93.800781 240.628906 C 93.507812 240.523438 93.21875 240.402344 92.933594 240.300781 L 92.507812 240.136719 L 92.097656 239.945312 C 89.90625 238.96875 88.0625 237.644531 86.492188 236.046875 C 85.699219 235.25 85.027344 234.351562 84.378906 233.414062 C 83.753906 232.460938 83.238281 231.433594 82.75 230.332031 C 82.5625 229.769531 82.292969 229.203125 82.144531 228.597656 L 81.871094 227.683594 C 81.785156 227.371094 81.71875 227.058594 81.648438 226.734375 C 81.53125 226.195312 81.4375 225.644531 81.355469 225.066406 Z M 188.4375 187.632812 C 205.804688 187.632812 223.054688 191.183594 239.710938 198.191406 C 255.828125 204.976562 271.429688 215.007812 286.078125 228.007812 C 287.1875 228.992188 287.289062 230.6875 286.300781 231.796875 C 285.316406 232.902344 283.621094 233.003906 282.511719 232.019531 C 253.746094 206.488281 221.21875 192.996094 188.4375 192.996094 C 155.375 192.996094 122.597656 206.710938 93.648438 232.65625 C 92.542969 233.648438 90.847656 233.554688 89.855469 232.449219 C 88.867188 231.347656 88.957031 229.652344 90.0625 228.660156 C 104.800781 215.453125 120.507812 205.261719 136.75 198.367188 C 153.535156 191.242188 170.925781 187.632812 188.4375 187.632812 " fill-opacity="1" fill-rule="nonzero"/></g><g fill="#ffffff" fill-opacity="1"><g transform="translate(73.376301, 176.632064)"><g><path d="M 17.75 -20.40625 L 32.796875 -20.40625 L 32.796875 -1.625 C 28.710938 -0.21875 24.222656 0.484375 19.328125 0.484375 C 13.960938 0.484375 9.8125 -1.070312 6.875 -4.1875 C 3.945312 -7.300781 2.484375 -11.742188 2.484375 -17.515625 C 2.484375 -23.140625 4.085938 -27.515625 7.296875 -30.640625 C 10.503906 -33.773438 15 -35.34375 20.78125 -35.34375 C 22.976562 -35.34375 25.046875 -35.132812 26.984375 -34.71875 C 28.929688 -34.3125 30.628906 -33.789062 32.078125 -33.15625 L 29.109375 -25.765625 C 26.585938 -27.003906 23.828125 -27.625 20.828125 -27.625 C 18.078125 -27.625 15.953125 -26.726562 14.453125 -24.9375 C 12.953125 -23.15625 12.203125 -20.601562 12.203125 -17.28125 C 12.203125 -14.019531 12.878906 -11.535156 14.234375 -9.828125 C 15.597656 -8.117188 17.554688 -7.265625 20.109375 -7.265625 C 21.515625 -7.265625 22.804688 -7.398438 23.984375 -7.671875 L 23.984375 -13.125 L 17.75 -13.125 Z M 17.75 -20.40625 "/></g></g></g><g fill="#ffffff" fill-opacity="1"><g transform="translate(109.506097, 176.632064)"><g><path d="M 12.578125 0 L 3.265625 0 L 3.265625 -27 L 12.578125 -27 Z M 3.03125 -33.71875 C 3.03125 -35.125 3.414062 -36.164062 4.1875 -36.84375 C 4.96875 -37.53125 6.222656 -37.875 7.953125 -37.875 C 9.691406 -37.875 10.957031 -37.523438 11.75 -36.828125 C 12.539062 -36.128906 12.9375 -35.09375 12.9375 -33.71875 C 12.9375 -30.988281 11.273438 -29.625 7.953125 -29.625 C 4.671875 -29.625 3.03125 -30.988281 3.03125 -33.71875 Z M 3.03125 -33.71875 "/></g></g></g><g fill="#ffffff" fill-opacity="1"><g transform="translate(125.378422, 176.632064)"><g><path d="M 19.703125 -27.484375 C 22.648438 -27.484375 24.984375 -26.25 26.703125 -23.78125 C 28.429688 -21.320312 29.296875 -17.914062 29.296875 -13.5625 C 29.296875 -9.175781 28.425781 -5.738281 26.6875 -3.25 C 24.945312 -0.757812 22.523438 0.484375 19.421875 0.484375 C 18.421875 0.484375 17.53125 0.375 16.75 0.15625 C 15.976562 -0.0625 15.285156 -0.359375 14.671875 -0.734375 C 14.054688 -1.117188 13.34375 -1.753906 12.53125 -2.640625 L 11.96875 -2.640625 L 10.484375 0 L 3.21875 0 L 3.21875 -37.09375 L 12.53125 -37.09375 L 12.53125 -28.703125 C 12.53125 -27.691406 12.421875 -25.96875 12.203125 -23.53125 L 12.53125 -23.53125 C 13.4375 -24.925781 14.484375 -25.929688 15.671875 -26.546875 C 16.859375 -27.171875 18.203125 -27.484375 19.703125 -27.484375 Z M 16.296875 -20.15625 C 14.992188 -20.15625 14.039062 -19.703125 13.4375 -18.796875 C 12.832031 -17.898438 12.53125 -16.476562 12.53125 -14.53125 L 12.53125 -13.234375 C 12.53125 -11.023438 12.832031 -9.4375 13.4375 -8.46875 C 14.039062 -7.507812 15.023438 -7.03125 16.390625 -7.03125 C 17.492188 -7.03125 18.335938 -7.585938 18.921875 -8.703125 C 19.515625 -9.828125 19.8125 -11.476562 19.8125 -13.65625 C 19.8125 -17.988281 18.640625 -20.15625 16.296875 -20.15625 Z M 16.296875 -20.15625 "/></g></g></g><g fill="#ffffff" fill-opacity="1"><g transform="translate(156.765593, 176.632064)"><g><path d="M 19.515625 -27.484375 C 20.328125 -27.484375 21.097656 -27.421875 21.828125 -27.296875 L 22.359375 -27.1875 L 21.515625 -18.40625 C 20.753906 -18.59375 19.703125 -18.6875 18.359375 -18.6875 C 16.316406 -18.6875 14.832031 -18.21875 13.90625 -17.28125 C 12.988281 -16.351562 12.53125 -15.019531 12.53125 -13.28125 L 12.53125 0 L 3.21875 0 L 3.21875 -27 L 10.15625 -27 L 11.609375 -22.6875 L 12.0625 -22.6875 C 12.84375 -24.113281 13.925781 -25.269531 15.3125 -26.15625 C 16.707031 -27.039062 18.109375 -27.484375 19.515625 -27.484375 Z M 19.515625 -27.484375 "/></g></g></g><g fill="#ffffff" fill-opacity="1"><g transform="translate(179.668457, 176.632064)"><g><path d="M 20.828125 0 L 19.046875 -3.578125 L 18.859375 -3.578125 C 17.597656 -2.015625 16.316406 -0.945312 15.015625 -0.375 C 13.710938 0.195312 12.03125 0.484375 9.96875 0.484375 C 7.425781 0.484375 5.421875 -0.273438 3.953125 -1.796875 C 2.492188 -3.328125 1.765625 -5.476562 1.765625 -8.25 C 1.765625 -11.125 2.765625 -13.265625 4.765625 -14.671875 C 6.765625 -16.078125 9.664062 -16.867188 13.46875 -17.046875 L 17.96875 -17.1875 L 17.96875 -17.5625 C 17.96875 -19.789062 16.875 -20.90625 14.6875 -20.90625 C 12.707031 -20.90625 10.203125 -20.238281 7.171875 -18.90625 L 4.484375 -25.046875 C 7.628906 -26.671875 11.597656 -27.484375 16.390625 -27.484375 C 19.859375 -27.484375 22.539062 -26.625 24.4375 -24.90625 C 26.34375 -23.1875 27.296875 -20.785156 27.296875 -17.703125 L 27.296875 0 Z M 13.921875 -6.109375 C 15.046875 -6.109375 16.007812 -6.460938 16.8125 -7.171875 C 17.613281 -7.890625 18.015625 -8.820312 18.015625 -9.96875 L 18.015625 -12.0625 L 15.875 -11.96875 C 12.8125 -11.851562 11.28125 -10.722656 11.28125 -8.578125 C 11.28125 -6.929688 12.160156 -6.109375 13.921875 -6.109375 Z M 13.921875 -6.109375 "/></g></g></g><g fill="#ffffff" fill-opacity="1"><g transform="translate(210.078497, 176.632064)"><g><path d="M 12.53125 0 L 3.21875 0 L 3.21875 -37.09375 L 12.53125 -37.09375 Z M 12.53125 0 "/></g></g></g><g fill="#ffffff" fill-opacity="1"><g transform="translate(225.855492, 176.632064)"><g><path d="M 16.453125 -6.890625 C 17.703125 -6.890625 19.203125 -7.195312 20.953125 -7.8125 L 20.953125 -1.03125 C 19.691406 -0.488281 18.492188 -0.101562 17.359375 0.125 C 16.222656 0.363281 14.894531 0.484375 13.375 0.484375 C 10.238281 0.484375 7.976562 -0.28125 6.59375 -1.8125 C 5.21875 -3.351562 4.53125 -5.710938 4.53125 -8.890625 L 4.53125 -20.015625 L 1.265625 -20.015625 L 1.265625 -23.8125 L 5.40625 -26.734375 L 7.8125 -32.421875 L 13.921875 -32.421875 L 13.921875 -27 L 20.546875 -27 L 20.546875 -20.015625 L 13.921875 -20.015625 L 13.921875 -9.515625 C 13.921875 -7.765625 14.765625 -6.890625 16.453125 -6.890625 Z M 16.453125 -6.890625 "/></g></g></g><g fill="#ffffff" fill-opacity="1"><g transform="translate(248.305537, 176.632064)"><g><path d="M 20.828125 0 L 19.046875 -3.578125 L 18.859375 -3.578125 C 17.597656 -2.015625 16.316406 -0.945312 15.015625 -0.375 C 13.710938 0.195312 12.03125 0.484375 9.96875 0.484375 C 7.425781 0.484375 5.421875 -0.273438 3.953125 -1.796875 C 2.492188 -3.328125 1.765625 -5.476562 1.765625 -8.25 C 1.765625 -11.125 2.765625 -13.265625 4.765625 -14.671875 C 6.765625 -16.078125 9.664062 -16.867188 13.46875 -17.046875 L 17.96875 -17.1875 L 17.96875 -17.5625 C 17.96875 -19.789062 16.875 -20.90625 14.6875 -20.90625 C 12.707031 -20.90625 10.203125 -20.238281 7.171875 -18.90625 L 4.484375 -25.046875 C 7.628906 -26.671875 11.597656 -27.484375 16.390625 -27.484375 C 19.859375 -27.484375 22.539062 -26.625 24.4375 -24.90625 C 26.34375 -23.1875 27.296875 -20.785156 27.296875 -17.703125 L 27.296875 0 Z M 13.921875 -6.109375 C 15.046875 -6.109375 16.007812 -6.460938 16.8125 -7.171875 C 17.613281 -7.890625 18.015625 -8.820312 18.015625 -9.96875 L 18.015625 -12.0625 L 15.875 -11.96875 C 12.8125 -11.851562 11.28125 -10.722656 11.28125 -8.578125 C 11.28125 -6.929688 12.160156 -6.109375 13.921875 -6.109375 Z M 13.921875 -6.109375 "/></g></g></g><g fill="#ffffff" fill-opacity="1"><g transform="translate(278.715565, 176.632064)"><g><path d="M 19.515625 -27.484375 C 20.328125 -27.484375 21.097656 -27.421875 21.828125 -27.296875 L 22.359375 -27.1875 L 21.515625 -18.40625 C 20.753906 -18.59375 19.703125 -18.6875 18.359375 -18.6875 C 16.316406 -18.6875 14.832031 -18.21875 13.90625 -17.28125 C 12.988281 -16.351562 12.53125 -15.019531 12.53125 -13.28125 L 12.53125 0 L 3.21875 0 L 3.21875 -27 L 10.15625 -27 L 11.609375 -22.6875 L 12.0625 -22.6875 C 12.84375 -24.113281 13.925781 -25.269531 15.3125 -26.15625 C 16.707031 -27.039062 18.109375 -27.484375 19.515625 -27.484375 Z M 19.515625 -27.484375 "/></g></g></g></svg>